<?xml version="1.0" encoding="UTF-8"?>
<svg id="Layer_1" data-name="Layer 1" xmlns="http://www.w3.org/2000/svg" viewBox="0 0 800 800">
  <path d="M657.05,592.59c-4.26,24.83-26.62,49.88-53.91,49.89l-405.24.06c-30.48,0-54.46-28.39-55.93-56.7-.42-8.07-.24-13.18-.07-20.75.31-13.63,11.51-27.12,25.71-27.19l55.3-.28c-6.05-10.47-22.35-10.65-32.91-9.2l-24.09,3.32c-8.06,1.11-16.09,0-23.52-2.65-9.99-4.03-14.73-13.77-11.82-24.39,4.17-15.2,15.62-27.17,30.11-34.52-24.08-19.44-25.83-56.11-1.63-76.79-11.34-8.28-14.67-21.86-8.5-34.29-5.37-2.48-8.33-6.96-7.48-12.64,5.94-72.8,57.12-129.38,121.2-159.67,59.16-27.96,124.59-34.27,189.11-25.87,97.64,12.7,199.14,79.99,206.99,185.64,1.1,7.17-3.3,12.64-10.46,13.35,5.02,12.16,1.9,25.39-8.72,33.57,23.48,20.83,22.25,56.69-1.73,76.52,14.81,7.83,28.28,21.4,30.74,38.55.6,8.1-2.95,15.54-10.23,19.31-6.02,3.12-12.99,4.78-19.89,3.88l-22.61-2.94c-7.48-.97-21.89-1.74-24.55,8.64l37.95.34c14.47.13,26.32,12.13,27.02,26.25.49,9.87,1.03,17.54-.86,28.57ZM642.4,343.92c-1.73-21.15-8.11-40.08-17.81-58-15.66-28.05-38.05-50.78-65.09-68.16-29.27-18.97-61.79-31.19-96.21-37.38-61.44-11.06-125.69-6.17-183.25,18.41-38.87,16.6-75.17,43.8-96.96,80.5-11.95,19.55-19.73,40.91-22.2,64.62h481.52ZM342.91,398.68c10.42-7.85,20.89-13.41,33.74-15.15,7.94-1.08,15.56-1.98,24.03-1.98l222.54.03c6.74,0,11.52-3.79,11.57-10.28s-4.78-10.09-11.62-10.09H176.2c-6.28.01-10.7,3.72-11.1,9.39-.34,4.79,3.44,10.92,9.32,10.96l50.59.32c16.84.11,30.25,7.6,41.97,18.86l26.4,25.37c3.43,3.3,7.97,3.9,11.67,1.11l37.85-28.53ZM358,408.93l-16.96,12.71-24.51,18.91c-9.52,7.34-21.71,7.68-31.63.77-4.32-3.01-7.86-6.98-11.77-10.72-8.77-8.42-16.87-16.83-26.49-24.41-5.76-4.54-13.97-6.55-21.39-6.78-12.51-.4-24.29-.47-36.8-.03-17.77.63-30.62,16.52-29.04,34.2,1.33,14.92,13.21,28.89,29.22,28.89l422.06.05c15.44,0,27.06-11.85,29.46-26.47,3-18.32-9.97-36.73-29.44-36.75l-205.04-.22c-15.96-.02-34.77.21-47.68,9.88ZM285.15,557.39c28.47-11.47,54.03-28.28,75.71-49.93,7.68-8.87,14.55-17.02,21.17-27.28l-48.59-.1c-19.1,13.54-35.51,30.66-47.44,50.84-2.82,4.76-6.98,6.61-12.04,4.32-3.79-1.72-6.16-7.32-3.69-11.72,9.19-16.41,21.17-30.53,35.29-43.4l-119.56.29c-14.84.04-37.93,15.41-38.76,31.07,4.35,5.9,28.42,1.72,35.49.45,23.97-4.3,49.85-.33,59.19,25.18,2.03,5.53,3.97,11.11,6.95,16.27,7.19,12.46,24.99,8.73,36.27,4ZM615.51,480.52l-136.9-.49,28.21,18.31c17.48-3.02,31.22-3.79,47.76,3.64,4.98,2.24,6.99,7.65,4.59,12.15-2.22,4.15-7.15,5.83-11.77,3.67-7.29-3.41-15.13-5.47-23.52-4.28,7.65,8.39,14.33,17.02,19.37,26.89,2.38,4.66,1.45,9.77-2.51,12.24-4.45,2.77-9.67.88-12.26-3.68-8.11-14.26-18.47-26.54-32.36-36.68-4.31,6.97-4.33,15.41-2.29,23.18,1.28,4.89-1.11,9.59-5.66,11.04-3.85,1.22-9.03-.26-10.53-4.85-4.34-13.25-2.45-27.03,3.97-39.46-13.76-8.83-43.6-24.49-59.63-21.95,16.03,18.84,14.3,32.14,28.36,53.65,13.33,20.4,36.58,29.2,59.15,35.01l23.87,6.15c12.25,3.16,31.02,8.38,36.1-9.44,3.43-12.02,1.6-19.21,6.44-33.34,6.55-19.11,26.08-23.14,44.18-20.61l19.15,2.67c4.16.58,10.08,0,13.18-2.55.8-15.06-23.64-31.22-36.9-31.27ZM431.99,537.55c-4.85-8.98-8.61-17.53-12.02-26.81-4.1-10.69-10.68-20.06-20.21-26.63-12.13,21.13-27.84,38.07-46.44,53.52l78.67-.08ZM552.86,595.27c-9.37.07-17.51-2.07-25.99-4.31l-43.14-11.92c-14.39-5.69-27.41-12.48-38.37-23.91l-116.91-.05c-15.68,8.94-31.38,16.99-48.73,22.11-11.86,3.51-24.01,2.61-34.43-3.56-6.73-4.55-11.11-10.67-14.67-18.49l-59.62-.22c-6.79-.03-11.65,4.55-11.65,11.16v16.29c.01,21.09,17.24,42.94,40.12,42.94l400.45.07c21.68,0,38.83-19.19,40.34-39.49.56-7.59.47-13.98.1-21.12-.32-5.99-5.51-9.7-11.14-9.7l-40.25-.06-1.89,11.46c-2.76,16.74-16.6,28.65-34.22,28.78Z"/>
  <path d="M240.55,283.06c-2.31,4.81-7.79,6.07-11.39,4.23-4.5-2.3-6.23-6.96-4.06-11.69,6.45-14.12,18.12-25.34,32.66-30.78,4.79-1.79,9.39.55,11.13,4.49,2.13,4.82-.38,9.75-5.31,11.56-10.54,3.88-18.13,11.98-23.03,22.19Z"/>
  <path d="M578.97,277.13c2.09,4.75-.9,9.28-4.69,10.97-4.18,1.86-9.21-.15-11.33-4.61-11.74-24.74-31.73-18.52-28.68-31.45,1-4.26,5.66-7.96,10.51-6.28,15.23,5.28,27.56,16.28,34.19,31.38Z"/>
  <path d="M506.44,235.29c2.39,4.51-.4,9.2-3.88,10.99-3.72,1.92-8.84.9-11.28-3.07-5.26-8.54-12.48-15.01-22.07-18.53-4.62-1.69-7.3-5.81-6.25-10.32,1.07-4.63,5.83-8.02,11.04-6.29,13.76,4.57,25.47,14.11,32.43,27.22Z"/>
  <path d="M336.8,224.65c-23.71,8.6-19.86,26.9-32.78,21.81-3.58-1.41-6.96-5.92-4.83-10.39,6.5-13.63,19.19-23.8,33.7-28.12,4.95-1.47,9.22,2.5,10.15,6.42,1.14,4.75-1.62,8.6-6.24,10.28Z"/>
  <path d="M481.87,292.51c2.41,5.32.43,10.34-4.29,12.45-4.45,1.99-9.64-.51-11.65-5.43-3.23-7.91-8.14-14.15-15.55-18.46-4.28-2.49-6.01-7.6-3.96-11.54,2.37-4.56,7.59-6.33,12.26-3.67,10.57,6.01,18.03,15.26,23.19,26.66Z"/>
  <path d="M368.3,271.89c-16.39,16.94-7.22,29.8-20.11,30.26-3.95.14-8.87-3.18-8.54-8.06.91-13.26,7.23-25.21,16.6-34.3,3.43-3.33,8.68-3.14,11.77-.32,3.39,3.09,3.7,8.89.28,12.43Z"/>
  <path d="M408.09,208.8c7.93,7.43,27,34.26,11.8,39.27-4.23,1.39-9.51-.98-10.95-5.88-2.38-8.11-6.39-14.97-12.51-20.8-3.63-3.46-3.72-8.9-.46-12.3s8.43-3.76,12.12-.3Z"/>
</svg>