<?xml version="1.0" encoding="UTF-8"?>
<svg id="Layer_1" xmlns="http://www.w3.org/2000/svg" version="1.1" viewBox="0 0 1254 1254">
  <!-- Generator: Adobe Illustrator 30.2.1, SVG Export Plug-In . SVG Version: 2.1.1 Build 1)  -->
  <defs>
    <style>
      .st0 {
        stroke: #000;
        stroke-miterlimit: 10;
        stroke-width: 8px;
      }
    </style>
  </defs>
  <path class="st0" d="M710.51,1042.36c-1.74,18.16-16.17,30.42-33.79,30.42h-100.82c-18.51-.75-31.09-14.23-32.93-32.11l-6.69-65.18c-32.98-8.93-62.95-21.95-91.91-39.72l-54.54,41.74c-13.93,10.66-32.8,8.45-45.8-2.56l-65.18-65.6c-12.87-12.96-16.79-32.51-4.84-47.8l37.61-48.15c2.24-2.27,2.8-5.43,1.2-8.28-15.01-26.69-26.08-54.2-33.42-84.15l-72.45-6.99c-16.12-1.56-26.87-15.6-27.98-31.08l.27-102.79c.04-16.1,12.95-30,28.7-31.33l67.12-5.66c2.04-.17,5.1-2.03,5.61-4.2,6.77-28.87,17.67-55.38,32.02-81.29,1.64-2.96,1.37-6.09-.64-8.67l-38.13-49.08c-11.69-15.05-8.04-34.81,4.75-47.79l62.56-63.51c14.45-14.67,34.83-16.36,51.16-3.52l48.72,38.32c2.2,1.73,5.24,1.67,7.68.19,26.28-15.93,53.63-28.46,83.4-36.2,3.38-.88,5.04-3.27,5.33-6.65l5.79-67.8c1.45-16.94,13.92-31.43,31.87-31.46l103.39-.22c15.94.49,30.25,11.8,31.76,28.37l6.96,76.21c31.72,8.28,60.12,20.9,87.56,37.52,2.92,1.77,5.98,1.84,8.52-.28l51.7-40.14c13.53-10.5,33.71-8.44,45.74,3.7l65.05,65.62c13.89,14.02,15.38,33.95,3.2,49.47l-37.76,48.07c-1.57,2-1.38,5.32-.16,7.52,14.37,25.9,25.47,52.43,32.31,81.34.37,1.54,2.87,4.31,4.36,4.45l68.21,6.52c16.85,1.61,28.82,16.31,28.84,33.04l.14,98.7c-.79,15.8-10.81,30.78-27.28,32.46l-72.95,7.42c-7.34,30.04-18.45,57.58-33.87,83.91-1.47,2.51-1.14,5.57.47,7.73l37.03,46.72c10.59,13.36,12.23,33.37-.45,46.15l-67.9,68.47c-13.27,13.38-33.82,13.13-48.22,1.98l-49.23-38.15c-1.69-1.31-5.02-1.41-7.14-.11-26.5,16.17-55.65,28.79-85.49,36.72-1.51.4-3.29,3.27-3.45,4.94l-6.02,62.81ZM677.37,1049.84c6.36,0,9.88-5.58,10.34-10.6l5.45-59.61c1.4-15.29,9.8-24.79,24.56-28.39,26.05-6.36,50.47-17.69,73.47-31.69,10.3-6.27,23.56-8.76,33.88-.8l52.34,40.34c5.71,4.4,12.85,2.27,17.46-2.35l66.43-66.64c4.18-4.19,2.77-11.4-.47-15.53l-38.8-49.45c-7.38-9.41-6.84-21.08-.99-31.44,12.7-22.49,23.57-45.96,29.29-71.23,3.16-13.96,11.95-23.45,26.61-24.76l65.08-5.81c5.22-.47,9.69-5.26,9.69-10.7l-.03-98.31c0-5.78-4.86-10.58-10.29-11.07l-64.2-5.71c-15.5-1.38-24.23-11.7-27.35-26.44-5.62-26.61-17.7-50.61-30.4-74.62-4.06-7.67-4.14-19.1,1.41-26.23l41.14-52.94c4.19-5.39,2.66-12.02-1.93-16.64l-66.66-67.18c-4.22-4.25-11.05-3.48-15.33-.13l-48.22,37.73c-11.07,8.66-23.77,10.91-36.42,3.33-23.56-14.11-48.43-26.37-75.33-33.18-11.76-2.97-21.49-9.17-23.9-21.64l-6.44-74.98c-.48-5.61-5.63-9.16-11.01-9.16l-99.69.06c-5.98,0-10.1,4.45-10.61,10.06l-6.02,66.91c.25,15.05-9.48,25.23-23.75,28.74-26.94,6.63-51.87,18.7-75.57,32.97-12.07,7.26-24.83,6.24-35.77-2.38l-49.27-38.78c-4.77-3.76-11.68-3.07-15.91,1.21l-66.62,67.42c-4.84,4.9-4.71,11.5-.62,16.72l36.75,46.88c8.82,11.25,9.74,23.64,2.71,36.06-12.73,22.49-22.58,46.12-28.6,71.44-2.75,11.57-10.33,22.77-23.26,23.9l-68.57,6.01c-5.28.46-9.75,5.23-9.75,10.67l-.03,100.06c0,4.5,4.13,9.35,8.54,9.74l65.24,5.8c14.83,1.32,24.36,10.2,27.73,24.55,5.87,24.98,15.94,48.5,28.65,70.85,5.4,9.5,7.38,21.51.2,30.73l-39.66,50.98c-4.02,5.16-4.14,11.88.66,16.69l66.97,67.12c3.56,3.56,11.08,4.03,14.88,1.1l51.12-39.45c10.91-8.42,23.78-7.82,35.28-.79,23.36,14.27,48.49,25.63,75.05,32.38,13.36,3.4,21.78,11.84,23.19,25.97l6.34,63.15c.52,5.2,5.36,9.09,10.59,9.08l100.42-.02Z"/>
  <path class="st0" d="M776.9,703.94c-23.78,51.35-72.84,86.21-126.56,93.91-59.48,8.52-116.91-15.23-153.84-61.17-42.1-52.39-47.96-124.09-16.14-182.62,40.01-73.6,127.79-106.69,205.77-76.37,89.56,34.82,131.4,138.55,90.78,226.26ZM646.48,775.15c55.21-7.7,100.81-47.33,116.74-99.77,22.14-72.89-16.69-150.82-87.88-177.19-60.75-22.51-128.77-.14-165.57,52.19-48.47,68.93-28.57,163,43.95,206.24,27.35,16.3,59.16,23.22,92.75,18.53Z"/>
</svg>