<?xml version="1.0" encoding="UTF-8"?>
<svg id="Layer_1" data-name="Layer 1" xmlns="http://www.w3.org/2000/svg" viewBox="0 0 800 800">
  <defs>
    <style>
      .cls-1 {
        stroke: #000;
        stroke-miterlimit: 10;
        stroke-width: 12px;
      }
    </style>
  </defs>
  <path class="cls-1" d="M189.12,474.94l12.13,5.52c2.5,1.14,5.45,4.16,5.46,7.23.01,3.57-1.49,7.39-3.44,10.36-4.07,6.18-3.66,14.35,2.6,18.79l6.92,4.9c-3.98,3.9-6.65,8.38-5.7,13.74,1.99,11.27,17.22,8.85,15.58,23.93l-1.26,11.55c-1.69,15.49,9.27,27.85,24.44,29.73,8.36,1.04,16.35.14,24.81-1.1l46.69-6.86c17.16-2.52,26.3,17.09,30.48,30.47,3.16,10.1,5.75,20.3,7.68,30.62l11.75-2.09c-3.54-19.74-9.64-40.23-18.36-54.5-7.84-12.85-20.89-18.4-35.81-16.16l-52.04,7.81c-5.25.79-10.72.53-15.66-.46-7.47-1.5-12.94-7.84-12.16-15.62l1.34-13.41c1.17-11.64-5.29-20.71-15.65-26.19,3.03-6.26,10.67-7.65,10.24-13.64-.39-5.46-11.74-8.52-16.73-13.1,7.62-11.71,9.82-27.15-2.75-34.88-5.16-3.18-10.66-5.27-16.24-8.09-1.52-.79-.07-5.23,1.1-6.88,7.97-11.22,16.27-23.07,23.69-34.99,22.19-35.62.31-44.14,4.54-80.93,1.71-14.8,5.36-28.82,10.04-43.05l-6.18-14.14c-3.99-9.14-4.97-19.73-1.48-29.15,6.86-18.51,28.82-28.57,46.06-35.34,4.39-1.72,8.46-3.82,12.15-6.72,13.48-10.65,27.99-18.95,44.08-25.02,49.15-18.54,107.25-17.45,154.91,4.34,16.61,7.6,29.97,18.66,40.38,33.32,2.62,3.68,6.7,6.64,11,7.98,23.35,7.3,41,23.88,50.28,46.6,7.27,17.79,13.33,35.4,18.46,53.98,3.92,14.22,5.73,28.55,5.14,42.99-2.5-1.66-4.47-2.85-6.3-3.2-1.99-.38-5.85,1.8-5.92,4.14-.49,17.69-1.25,34.66-6.54,51.58-2.88,9.23-7.61,17.5-13.21,25.43-19.91,28.16-44,57.38-49.55,92.38l-28.39-8.12c-3.88-1.11-6.8,1.14-8.16,4.71-4.27,24.55,4.06,56.69,15,79.06.73,1.5,1.49,2.97,2.26,4.44l12.55-2.23c-11.85-21.64-19.21-45.05-18.91-72.8l22.55,6.52c7.34,2.12,13.73-2.78,15.09-9.93,2.68-14.05,7.24-26.9,14.65-39.12,9.18-15.13,18.95-28.98,29.38-43.27,18.1-24.81,20.68-37.03,24.71-67.14,3.3,2.19,9.16,2.11,10.11-1.93,9.45-40.26-6.38-82-20.76-119.75-9.78-25.65-29.7-45.84-55.67-54.87-4.54-1.58-7.46-3.72-10.36-7.56-13.93-18.49-33.02-31.33-54.99-39.37-63.63-23.3-142.26-16.48-196.72,25.49-13.39,10.32-25.44,8.96-47.81,26.61-23.54,18.57-23.63,45.71-10.74,70.85-8.49,30.01-13.77,51.32-4.99,81.81,4.93,17.12-3.21,29.85-12.82,44.15l-19.4,28.87c-5.2,7.74-1.55,18.08,6.47,21.74Z"/>
</svg>