<?xml version="1.0" encoding="UTF-8"?>
<svg id="Layer_1" data-name="Layer 1" xmlns="http://www.w3.org/2000/svg" viewBox="0 0 800 800">
  <defs>
    <style>
      .cls-1 {
        stroke: #000;
        stroke-miterlimit: 10;
        stroke-width: 4px;
      }
    </style>
  </defs>
  <path class="cls-1" d="M705.53,488.36c-21.63,6.46-36.79-1.94-48.87-20.35-15.27,9.71-30.88,18.58-48.44,25.77,6.32,16.7.72,34.64-15.29,43.41-8.83,4.83-18.78,5.29-28.97,2.73.26,12.64-5.88,24.03-15.7,30.6-11.01,7.37-24.16,8.67-36.89,3.17-1.2,5.68-2.34,11.22-5.72,16.06-10.93,15.66-31.24,20.48-48.84,11.2-3.15,13.08-12.99,22.08-26.01,24.86-19.86,4.23-34.8-6.09-50.76-16.48-6.94,10.08-16.82,16.89-28.81,17.4-16.91.72-31.11-10.43-34.16-27.31-10.89,4.83-21.66,4.43-32.03-1.66-8.1-4.76-14.11-14.27-16.04-24.79-10.78,3.11-22.98,2.75-32.59-4.88-8.14-6.47-13.82-16.62-13.48-28.73-12.3,1.59-22.9-3.27-30.26-11.63-7.67-8.72-8.87-20.76-6.21-31.99l-41.71-27.94c-10.59,16.83-27.08,27.03-47.16,21.14l-46.38-13.61c-4.25-1.25-6.71-4.72-6.02-8.72s4.71-7.14,9.38-5.8l50.76,14.57c8.39,2.41,17.7-3,22.73-9.85,7.41-10.09,12.61-20.9,17.71-32.52,18.15-41.42,34.3-94.2,39.14-139.42.92-8.57-3.52-17.23-12.31-19.83l-51.12-15.12c-4.26-1.26-6.18-5.34-5.19-9.07,1-3.76,4.89-6.42,9.21-5.17l46.77,13.48c18.43,5.31,29.29,18.39,27.17,38.49,19.99,5.19,37.38,5.11,56.28-4.02l55.56-26.84c23.57-11.39,41.99-23.04,69.34-17.54,9,1.81,17.42,5.25,25.98,7.98,24.1-11.36,42.85-17.12,68.25-5.34,30.4,14.1,59.65,28.88,89.11,44.81,13.51,7.31,23.99,7.2,38.02,2.22-1.88-24.34,9.4-34.82,30.47-40.82l43.9-12.51c4.21-1.2,8.25,1.63,9.19,5.36.85,3.38-.86,7.63-4.92,8.82l-51.33,15.03c-8.84,2.59-13.67,11.18-12.81,19.78,4.55,45.31,21.85,101.28,40.39,142.67,4.58,10.23,9.18,19.52,15.46,28.55,5.51,7.92,15.21,13.34,24.68,10.58l48.64-14.19c4.2-1.23,8.05,1.61,8.99,5.16,1.09,4.11-1.18,7.98-5.61,9.31l-43.51,13ZM447.1,317.83c1.67-4.08,5.68-6.03,9.42-4.59,12.7,4.9-3.47,23.97-9.56,29.63,21.41,11.89,38.59,26.95,56.73,42.33,17.74,15.05,41.68,20.62,64.27,19.21,4.95-.31,8.38,1.12,9.33,5.82.82,4.07-1.99,8.3-6.65,8.72-11.21,1.02-22.07.12-33.8-1.63l63.22,64.07c17.23-7.54,33.57-15.8,49.15-26.55l-17.4-40.68c-12.28-33.09-21.92-66.29-27.96-101.51-16.35,5.81-31.67,4.22-46.22-3.69-30.53-16.62-60.99-31.94-92.61-46.5-13.52-5.06-27.49-4.09-40.74,1.99-24.56,11.27-48.42,22.59-72.4,35.25-7.6,4.01-12.66,12.07-15.81,19.92l-19.78,49.28-9.48,18.64c-.69,1.36-.91,4.82.01,6.06.75,1.01,2.51,2.37,4.11,2.96,10.39,3.81,21.74,2.07,31.57-3.08,21.05-11.03,36.31-33.61,38.02-57.73.32-4.48,3.75-7.47,7.84-7.2,3.86.25,7.26,3.59,6.9,8.1l-.72,9.09c21.08-4.2,43.2-5.09,52.53-27.89ZM426.71,502.39c-3.53-3.08-3.6-7.25-1.3-10.39,1.87-2.56,6.77-4.2,9.94-1.46l76.83,66.3c10.17,8.77,24.87,6.61,32.43-3.07,8.21-10.52,4.38-22.27-4.7-30.43l-76.63-68.81c-3.27-2.94-2.67-7.74-.42-10.3s6.83-3.82,9.91-1.05l83.69,75.05c2.75,2.47,5.5,4.07,8.72,5.84,10.95,6.05,25.85,1.62,29.85-10.97,2.2-6.91.17-15.71-5.19-21.11l-62.51-62.96c-15.88-16-31.59-30.93-48.64-45.62-14.04-12.09-29.29-21.47-45.19-31.68-14.21,4.99-28.23,7.59-43.12,9.81l-5.49,9.83c-14.84,26.58-45.99,49.92-77.28,39.67-6.86-2.25-13.06-6.7-15.79-13.32-2.1-5.1-.69-11.26,1.85-16.21,7.53-14.7,13.89-29.22,19.8-44.72l9.64-25.27c5.66-11.82,13.61-21.29,25.36-27.13l38.7-19.23c-15.32-5.93-30.84-4.86-45.35,2.17l-73.18,35.45c-26.64,12.9-41.45,15.11-71,8.64-8.6,49.92-23.54,97.37-45.55,143.15l42.88,28.5c8.36-11.03,20.48-16.38,33.31-13.44,11.54,2.64,21.26,11.42,24.56,24.64l18.1-19.7c9.78-10.64,24.74-14.2,38.09-8.75,12.41,5.07,21.12,17.45,21.18,31.58,18.01-3.39,34.54,6.93,39.05,24.21,2.53,9.69.83,19.39-4.41,28.16,20.23,5.28,27.31,26.1,21.9,45.77l14,9.33c10.91,7.27,27.37,11.03,37.81.41,4.22-4.29,5.54-12.65.35-16.99l-48.84-40.88c-3.41-2.85-2.36-8.04.24-10.49,2.83-2.66,6.98-2.66,10.18,0l51.51,42.7c11.57,9.59,24.86,16.73,38.05,5.36,8.14-7.03,8.91-19.41.44-26.82l-63.78-55.78ZM270.78,553.8l39.73-43.93c7.52-8.31,5.8-20.59-2.2-27.4-7.67-6.53-19.24-5.86-26.54,2.21l-38.24,42.33c-7.4,8.19-7.63,20.21.34,27.8,6.95,6.62,19.44,7.24,26.91-1.02ZM233.44,516.62c4.88-6.1,7.29-12.45,4.54-20.44-1.89-5.51-6.99-11.26-14.29-12.25-7.93-1.08-13.52,3.85-18.48,9.34-7.39,8.17-7.21,20.17,1.11,27.17s19.89,5.22,27.13-3.81ZM316.61,581.69l33.4-36.92c5.12-5.66,7.05-13.2,4.67-20.35-2.03-6.09-6.92-10.53-12.11-11.99-6.17-1.74-13.59-.64-18.04,4.26l-35.66,39.35c-7.33,8.09-6.41,19.77,1.38,26.81,7.12,6.43,19.07,6.89,26.35-1.16ZM357,610.22c13.11-6.39,19.51-21.64,15.47-35.42-2.47-8.44-13.59-14.55-20.84-8.61-6.31,5.16-11.5,11.81-16.76,18.09-5.22,6.24-4.05,15.63.97,21.26,4.95,5.55,13.34,8.5,21.17,4.68Z"/>
</svg>