<?xml version="1.0" encoding="UTF-8"?>
<svg id="Layer_1" data-name="Layer 1" xmlns="http://www.w3.org/2000/svg" viewBox="0 0 800 800">
  <path d="M454.82,581.5c-71.93,9.15-142.91-30.23-170.23-98.66-21.2-53.1-12.12-114.57,23.64-158.94,46.49-57.69,127.3-76.15,194.18-44.67,41.57,19.57,72.08,55.69,84.9,99.91,10.31,35.56,8.57,73.21-6.22,107.1-22.54,51.62-70.09,88.11-126.26,95.25ZM514.86,539.32c33.22-23.37,55.52-59.18,59.99-99.49,3.43-30.92-3.49-62.08-19.19-88.57-27.34-46.11-78.03-72.97-131.46-69.26-33.04,2.29-63.16,15.76-87.23,37.71-53.5,48.8-61.29,130.59-17.43,188.39,45.52,59.97,131.99,75.76,195.32,31.22Z"/>
  <path d="M152.97,221.59c0-5.79,5.46-9.08,9.33-9.06,4.92.02,8.77,3.96,8.77,9.45v126.32c1.62,16.71-6.76,31.85-21.65,39.77-4.48,2.38-8.39,6.14-8.04,12.46l7.83,142.79,5.01,82.55c1.12,18.41-10.9,34.23-29.08,36.91-11.55,1.7-22.38-1.86-30.35-9.46-8.27-7.89-10.99-18.39-10.37-30.05l3.89-72.64,7.22-148.42c.34-6.95-3.31-12.08-8.93-14.83-14.06-6.88-22.07-20.43-22.05-36.18l.17-129.87c0-5.14,4.87-8.55,8.56-8.82,4.43-.32,9.31,3.1,9.32,8.58l.27,130.44c.02,7.35,4.07,14.59,9.58,18.13,5.01,3.22,10.17,5.64,13.7,10.15,6.26,8,7.79,17.39,7.3,27.55l-10.58,218.78c-.27,5.57,1.04,10.02,4.49,13.77s8.8,5.54,14.14,5.01c9.29-.91,14.83-8.11,14.28-17.4l-9.17-155.47-3.32-72.58c-.55-12.08,6.7-22.5,17.03-27.58,7.29-3.58,12.53-10.14,12.54-19.02l.08-131.29Z"/>
  <path d="M203.72,462.96c.25-3.87-1.58-7.09-3.48-9.2l-12.43-13.82c-4.55-5.06-5.9-11.14-6.08-17.87-.93-35.43,2.37-69.93,8.87-104.73,5.16-27.61,14.87-64.64,30.54-87.74,4.46-6.58,16.7-20.36,24.9-16.41,2.59,1.24,5.18,4.25,5.18,8.02v235.05s10.18,172.09,10.18,172.09c1.28,21.65-18.17,37-38.27,34.79-19.03-2.09-31.42-17.42-30.17-36.48l10.75-163.69ZM221.49,467.31l-10.02,158.43c-.67,10.6,4.53,18.67,14.95,19.19s17.25-7.56,16.68-18.28l-9.22-173.05-.68-208.22c-7.24,13.4-12.09,26.38-16.17,40.53-13.06,45.24-18.26,91.59-16.94,138.74,10.57,14.84,22.82,20.03,21.39,42.67Z"/>
  <path d="M275.32,600.67c-4.79-4.3-6.75-8.67-3.12-13.81,2.47-3.5,9.41-5.44,13.53-1.65,38.93,35.79,88.23,56.94,141.41,59.48,101.59,4.85,195.15-64.8,224.31-161.14,13.36-44.15,10.43-87.47-2.87-130.94-1.64-5.35-.09-10.32,5.2-12.08,4.09-1.36,9.85.11,11.58,5.19,16.45,48.47,18.03,101.48,1.65,150.24-28.9,86.01-105.85,151.48-195.72,164.68-70.95,10.42-142.71-12.18-195.96-59.97Z"/>
  <path d="M653.41,327.31c-45.86,6.57-88.96-20.41-103.98-63.84-10.18-29.44-4.93-62.38,14.15-88.1,16.95-22.84,44.85-38.28,74.93-38.7,33.8-.48,64.76,17.44,81.91,44.82,18.7,29.86,20.14,66.92,3.12,97.27-14.63,26.1-40.12,44.25-70.14,48.55ZM697.14,284.37c18.19-20.39,24.01-47.04,16.59-73.19-9.51-33.49-40.82-57.35-75.96-56.4-34.85.94-63.74,25.37-72.39,57.68-9.08,33.93,5.42,69.43,35.45,87.14,31.9,18.82,71.61,12.48,96.31-15.23Z"/>
  <path d="M429.9,200.44c-56.64,1-108.92,23.01-149.63,61.03-4.13,3.86-9.49,4.39-13.31.89s-4.17-9.5-.05-13.39c43.19-40.82,96.26-62.95,155.86-66.2,35.82-1.95,71.27,5.26,103.99,19.28,5.08,2.18,6.75,7.74,5.23,11.59-2,5.08-7.01,7.34-12.13,5.22-28.43-11.79-58.23-18.98-89.97-18.41Z"/>
  <path d="M141.58,322.32c0,5.29-3.46,9.16-8.25,9.5-4.42.32-9.71-3.22-9.71-8.76v-101.62c.01-5.21,4.74-8.89,9.03-8.95s8.83,3.82,8.83,8.92v35.14s.1,65.79.1,65.79Z"/>
  <path d="M112.41,321.95c0,5.71-3.21,9.27-8.11,9.82-3.69.41-9.64-2.67-9.65-8.05l-.19-101.65c0-5.41,4.05-9.19,8.62-9.56,4.01-.32,9.26,3.23,9.26,8.6l.06,100.84Z"/>
  <path d="M648.88,274.53c-.03,5.23-4.07,8.95-8.24,9.19s-9.51-2.93-9.56-8.2l-.29-33.71-31.96-.18c-4.85-.03-8.48-3.84-8.96-8.21-.42-3.88,2.69-9.55,7.81-9.61l33.06-.35.25-32.69c.04-5.16,5.69-8.62,9.62-8.34,5.55.39,8.35,5.02,8.36,10.55l.08,30.53,31.55.09c4.97.01,8.65,4.01,8.92,8.43.25,4.07-2.92,9.4-7.85,9.43l-32.61.24-.19,32.83Z"/>
</svg>